<svg height="512pt" viewBox="0 0 512.00801 512" width="512pt" xmlns="http://www.w3.org/2000/svg"><path d="m61.800781 459.039062h35.3125v44.136719c0 4.875-3.953125 8.828125-8.828125 8.828125h-17.65625c-4.875 0-8.828125-3.953125-8.828125-8.828125zm0 0" fill="#af8066"/><path d="m414.90625 459.039062h35.308594v44.136719c0 4.875-3.953125 8.828125-8.828125 8.828125h-17.65625c-4.875 0-8.824219-3.953125-8.824219-8.828125zm0 0" fill="#af8066"/><path d="m70.628906 432.554688v-361.929688c0-39.003906 31.617188-70.62109375 70.621094-70.62109375h229.515625c39.003906 0 70.621094 31.61718775 70.621094 70.62109375v361.929688zm0 0" fill="#e64c3c"/><path d="m105.9375 256.003906v211.863282h-52.964844c-9.738281-.03125-17.625-7.917969-17.65625-17.65625v-144.332032c-25.398437-8.980468-40.011718-35.601562-33.949218-61.851562 6.0625-26.253906 30.867187-43.769532 57.632812-40.707032 26.769531 3.066407 46.96875 25.742188 46.9375 52.683594zm0 0" fill="#fb7b76"/><path d="m512.007812 256.003906c.023438 22.441406-14.136718 42.445313-35.308593 49.875v144.332032c-.03125 9.738281-7.917969 17.625-17.65625 17.65625h-52.964844v-211.863282c0-29.25 23.710937-52.964844 52.964844-52.964844 29.25 0 52.964843 23.714844 52.964843 52.964844zm0 0" fill="#fb7b76"/><path d="m105.9375 414.902344h300.140625v52.964844h-300.140625zm0 0" fill="#7f5b53"/><g fill="#c03a2b"><path d="m132.421875 326.625h247.171875c14.625 0 26.484375 11.855469 26.484375 26.484375v61.792969h-300.140625v-61.792969c0-14.628906 11.859375-26.484375 26.484375-26.484375zm0 0"/><path d="m158.90625 123.589844h-17.65625c-4.875 0-8.828125-3.953125-8.828125-8.828125s3.953125-8.828125 8.828125-8.828125h17.65625c4.875 0 8.824219-3.949219 8.824219-8.824219v-17.65625c0-4.875 3.953125-8.828125 8.828125-8.828125s8.828125 3.953125 8.828125 8.828125v17.65625c0 14.625-11.855469 26.480469-26.480469 26.480469zm0 0"/><path d="m211.871094 123.589844h-17.65625c-14.625 0-26.484375-11.855469-26.484375-26.480469v-17.65625c0-4.875 3.953125-8.828125 8.828125-8.828125s8.828125 3.953125 8.828125 8.828125v17.65625c0 4.875 3.953125 8.824219 8.828125 8.824219h17.65625c4.875 0 8.828125 3.953125 8.828125 8.828125s-3.953125 8.828125-8.828125 8.828125zm0 0"/><path d="m176.558594 158.902344c-4.875 0-8.828125-3.953125-8.828125-8.828125v-17.65625c0-4.875-3.949219-8.828125-8.824219-8.828125h-17.65625c-4.875 0-8.828125-3.953125-8.828125-8.828125s3.953125-8.828125 8.828125-8.828125h17.65625c14.625 0 26.480469 11.859375 26.480469 26.484375v17.65625c0 4.875-3.953125 8.828125-8.828125 8.828125zm0 0"/><path d="m176.558594 158.902344c-4.875 0-8.828125-3.953125-8.828125-8.828125v-17.65625c0-14.625 11.859375-26.484375 26.484375-26.484375h17.65625c4.875 0 8.828125 3.953125 8.828125 8.828125s-3.953125 8.828125-8.828125 8.828125h-17.65625c-4.875 0-8.828125 3.953125-8.828125 8.828125v17.65625c0 4.875-3.953125 8.828125-8.828125 8.828125zm0 0"/><path d="m317.800781 123.589844h-17.65625c-4.875 0-8.828125-3.953125-8.828125-8.828125s3.953125-8.828125 8.828125-8.828125h17.65625c4.875 0 8.828125-3.949219 8.828125-8.824219v-17.65625c0-4.875 3.953125-8.828125 8.828125-8.828125s8.828125 3.953125 8.828125 8.828125v17.65625c0 14.625-11.859375 26.480469-26.484375 26.480469zm0 0"/><path d="m370.765625 123.589844h-17.652344c-14.628906 0-26.484375-11.855469-26.484375-26.480469v-17.65625c0-4.875 3.953125-8.828125 8.828125-8.828125s8.828125 3.953125 8.828125 8.828125v17.65625c0 4.875 3.949219 8.824219 8.828125 8.824219h17.652344c4.875 0 8.828125 3.953125 8.828125 8.828125s-3.953125 8.828125-8.828125 8.828125zm0 0"/><path d="m335.457031 158.902344c-4.875 0-8.828125-3.953125-8.828125-8.828125v-17.65625c0-4.875-3.953125-8.828125-8.828125-8.828125h-17.65625c-4.875 0-8.828125-3.953125-8.828125-8.828125s3.953125-8.828125 8.828125-8.828125h17.65625c14.625 0 26.484375 11.859375 26.484375 26.484375v17.65625c0 4.875-3.953125 8.828125-8.828125 8.828125zm0 0"/><path d="m335.457031 158.902344c-4.875 0-8.828125-3.953125-8.828125-8.828125v-17.65625c0-14.625 11.855469-26.484375 26.484375-26.484375h17.652344c4.875 0 8.828125 3.953125 8.828125 8.828125s-3.953125 8.828125-8.828125 8.828125h-17.652344c-4.878906 0-8.828125 3.953125-8.828125 8.828125v17.65625c0 4.875-3.953125 8.828125-8.828125 8.828125zm0 0"/></g><path d="m345.785156 326.625c.085938-.265625.085938-.53125.175782-.792969l21.714843-121.644531c.824219-4.613281-.222656-9.363281-2.90625-13.203125-2.679687-3.84375-6.78125-6.460937-11.394531-7.277344l-121.644531-21.71875c-4.609375-.820312-9.359375.226563-13.203125 2.90625-3.839844 2.683594-6.457032 6.785157-7.273438 11.394531l-21.71875 121.644532c-.820312 4.613281.226563 9.363281 2.90625 13.203125 2.683594 3.84375 6.78125 6.460937 11.394532 7.277343l45.992187 8.210938zm0 0" fill="#f0c419"/><path d="m61.800781 264.832031h-17.65625c-4.875 0-8.828125-3.953125-8.828125-8.828125s3.953125-8.828125 8.828125-8.828125h17.65625c4.875 0 8.828125 3.953125 8.828125 8.828125s-3.953125 8.828125-8.828125 8.828125zm0 0" fill="#e64c3c"/><path d="m467.871094 264.832031h-17.65625c-4.875 0-8.828125-3.953125-8.828125-8.828125s3.953125-8.828125 8.828125-8.828125h17.65625c4.875 0 8.828125 3.953125 8.828125 8.828125s-3.953125 8.828125-8.828125 8.828125zm0 0" fill="#e64c3c"/></svg>