<?xml version="1.0" encoding="iso-8859-1"?>
<!-- Generator: Adobe Illustrator 19.0.0, SVG Export Plug-In . SVG Version: 6.00 Build 0)  -->
<svg version="1.1" id="Capa_1" xmlns="http://www.w3.org/2000/svg" xmlns:xlink="http://www.w3.org/1999/xlink" x="0px" y="0px"
	 viewBox="0 0 511.998 511.998" style="enable-background:new 0 0 511.998 511.998;" xml:space="preserve">
<path style="fill:#03AA6F;" d="M507.732,290.131l-34.133,34.133l-94.123,68.011l-16.64-16.64l0.341-0.427
	c25.788-2.654,44.535-25.702,41.882-51.49c-2.654-25.788-25.702-44.535-51.49-41.882c-22.323,2.295-39.902,20.079-41.941,42.428
	l-0.085,0.085l-29.944-29.952l115.2-115.2L507.732,290.131z"/>
<polygon style="fill:#F5D0C7;" points="507.732,358.398 328.532,511.998 277.332,511.998 115.199,452.265 4.266,452.265 
	4.266,358.398 115.199,358.398 121.172,355.838 157.866,340.137 174.932,332.798 259.583,332.798 311.466,332.798 311.466,383.998 
	209.066,383.998 319.999,435.198 379.476,392.275 473.599,324.265 "/>
<path style="fill:#79DCA0;" d="M405.332,328.531c0.026,24.073-18.202,44.254-42.155,46.677l-0.341,0.427l-47.104-47.104
	l-4.181-4.181l0.085-0.085c2.202-25.83,24.926-44.979,50.756-42.778C386.781,283.569,405.477,304.049,405.332,328.531z"/>
<polygon style="fill:#03AA6F;" points="379.476,392.275 319.999,435.198 209.066,383.998 311.466,383.998 311.466,332.798 
	315.732,328.531 362.836,375.635 "/>
<path style="fill:#FFDB6F;" d="M285.866,157.865c6.571,0.085,12.971-2.116,18.091-6.229c4.634-3.661,7.39-9.199,7.509-15.104
	c-0.29-5.538-4.113-10.257-9.472-11.691l-16.128-5.376v-38.4c-6.571-0.085-12.971,2.116-18.091,6.229
	c-4.634,3.661-7.39,9.199-7.509,15.104c0.29,5.538,4.113,10.257,9.472,11.691l16.128,5.376V157.865z M285.866,42.665
	c42.419,0,76.8,34.381,76.8,76.8s-34.381,76.8-76.8,76.8s-76.8-34.381-76.8-76.8S243.446,42.665,285.866,42.665z"/>
<path style="fill:#03AA6F;" d="M315.732,328.531l-4.267,4.267h-51.883c-4.574-27.904-30.899-46.822-58.803-42.249
	c-24.397,4.002-42.453,24.866-42.914,49.587l-36.693,15.701l-74.24-74.24l110.933-110.933l123.733,123.733l29.952,29.952
	L315.732,328.531z"/>
<g>
	<path style="fill:#FFDB6F;" d="M311.466,136.531c-0.119,5.905-2.876,11.443-7.509,15.104c-5.12,4.113-11.52,6.315-18.091,6.229
		v-38.4l16.128,5.376C307.353,126.274,311.175,130.993,311.466,136.531z"/>
	<path style="fill:#FFDB6F;" d="M285.866,81.065v38.4l-16.128-5.376c-5.359-1.434-9.182-6.153-9.472-11.691
		c0.119-5.905,2.876-11.443,7.509-15.104C272.895,83.181,279.295,80.979,285.866,81.065z"/>
</g>
<path style="fill:#79DCA0;" d="M259.583,332.798h-84.651l-17.067,7.339c0.521-28.271,23.859-50.773,52.13-50.253
	C234.717,290.345,255.581,308.401,259.583,332.798z"/>
<g>
	<path style="fill:#FFDB6F;" d="M340.982,33.201c-33.707-21.12-76.527-21.12-110.234,0l-9.233-14.353
		c39.219-25.131,89.481-25.131,128.7,0L340.982,33.201z"/>
	<path style="fill:#FFDB6F;" d="M175.581,165.408c-6.067-14.558-9.19-30.174-9.182-45.943h17.067
		c-0.009,13.525,2.671,26.914,7.885,39.39L175.581,165.408z"/>
	<path style="fill:#FFDB6F;" d="M285.866,238.931v-17.067c13.525,0.009,26.914-2.671,39.39-7.885l6.554,15.77
		C317.251,235.817,301.635,238.94,285.866,238.931z"/>
	<path style="fill:#FFDB6F;" d="M396.15,165.408l-15.77-6.554c5.214-12.476,7.893-25.865,7.885-39.39h17.067
		C405.341,135.234,402.218,150.85,396.15,165.408z"/>
</g>
<g>
	<path style="fill:#FF8030;" d="M285.866,204.798c-47.13,0-85.333-38.204-85.333-85.333s38.204-85.333,85.333-85.333
		s85.333,38.204,85.333,85.333C371.148,166.569,332.97,204.747,285.866,204.798z M285.866,51.198
		c-37.7,0-68.267,30.566-68.267,68.267s30.566,68.267,68.267,68.267s68.267-30.566,68.267-68.267
		C354.09,81.781,323.549,51.241,285.866,51.198z"/>
	<path style="fill:#FF8030;" d="M285.866,166.398c-8.567,0.094-16.905-2.807-23.561-8.209c-6.571-5.291-10.445-13.227-10.573-21.658
		h17.067c0.128,3.362,1.749,6.502,4.437,8.533c7.543,5.419,17.707,5.419,25.25,0c2.688-2.031,4.318-5.163,4.446-8.533
		c0-1.195-1.237-2.807-3.601-3.584l-32.29-10.769c-8.841-2.594-15.01-10.573-15.309-19.78c0.128-8.431,4.011-16.375,10.581-21.658
		c6.647-5.402,14.985-8.303,23.552-8.209c17.638-1.075,32.862,12.237,34.133,29.867h-17.067c0-6.938-7.817-12.8-17.067-12.8
		c-4.574-0.068-9.028,1.434-12.621,4.267c-2.688,2.031-4.318,5.163-4.446,8.533c0,1.195,1.237,2.807,3.601,3.584l32.29,10.769
		c8.841,2.594,15.01,10.573,15.309,19.78c-0.128,8.431-4.011,16.375-10.581,21.658C302.77,163.59,294.433,166.492,285.866,166.398z"
		/>
	<rect x="277.332" y="68.265" style="fill:#FF8030;" width="17.067" height="102.4"/>
</g>
<g>
</g>
<g>
</g>
<g>
</g>
<g>
</g>
<g>
</g>
<g>
</g>
<g>
</g>
<g>
</g>
<g>
</g>
<g>
</g>
<g>
</g>
<g>
</g>
<g>
</g>
<g>
</g>
<g>
</g>
</svg>
